<svg id="Layer_1" data-name="Layer 1" xmlns="http://www.w3.org/2000/svg" xmlns:xlink="http://www.w3.org/1999/xlink" viewBox="0 0 413 413"><defs><style>.cls-1{fill:url(#linear-gradient);}.cls-2{fill:#fff;}</style><linearGradient id="linear-gradient" x1="49.29" y1="118.47" x2="409.71" y2="320.28" gradientUnits="userSpaceOnUse"><stop offset="0" stop-color="#b6d65f"/><stop offset="0.88" stop-color="#fff98d"/></linearGradient></defs><circle class="cls-1" cx="206.5" cy="206.5" r="206.5"/><path class="cls-2" d="M93.78,412.2l43.15-44.13q42.39,31.05,86.43,31.05,27.07,0,45.66-14.22t18.59-35.13q0-23.2-36.93-63.42l-29.75-32.68q-43.47-47.73-43.47-79.76,0-44.44,42.17-78.93t96.42-34.49q29.74,0,66.68,12.42l-14.38,72.24H347.43l1-5.56a32.29,32.29,0,0,0,.65-6.86q0-44.13-56.72-44.13-63.57,0-63.56,51,0,25.83,37.91,68.64L293.5,238q43.78,49.35,43.8,81.06,0,43.8-46.42,78.12T185.3,431.48Q143.79,431.48,93.78,412.2Z" transform="translate(-36 -31)"/></svg>